<?xml version="1.0" encoding="utf-8"?>
<!-- Generator: Adobe Illustrator 24.1.0, SVG Export Plug-In . SVG Version: 6.00 Build 0)  -->
<svg version="1.1" id="Layer_1" xmlns="http://www.w3.org/2000/svg" xmlns:xlink="http://www.w3.org/1999/xlink" x="0px" y="0px"
	 viewBox="0 0 299.5 345.9" style="enable-background:new 0 0 299.5 345.9;" xml:space="preserve">
<path d="M269.3,69l-89.1-51.4L149.8,0L0,86.5v34.8c0,0.1,0,0.2,0,0.2v102.8c0,0.1,0,0.2,0,0.2c0.1,21.6,11.6,41.5,30.3,52.4l0,0
	l89.1,51.4c0.2,0.1,0.3,0.2,0.4,0.3l29.9,17.3l149.8-86.5v-35.1V121.5C299.7,99.9,288.1,79.8,269.3,69z M283.7,121.6v128.7
	l-133.8,77.3V208.1c0-21.7-11.6-41.8-30.4-52.6L16,95.7l133.8-77.3l111.5,64.4C275.1,90.8,283.7,105.6,283.7,121.6z"/>
</svg>
